<?xml version="1.0" encoding="UTF-8"?>
<svg id="Layer_1" data-name="Layer 1" xmlns="http://www.w3.org/2000/svg" viewBox="0 0 1151.85 393.73">
  <defs>
    <style>
      .cls-1 {
        fill: #363b57;
      }
    </style>
  </defs>
  <g>
    <path class="cls-1" d="M348.65,237.06l-56.79-151.22h-56.82l86.78,219.32-4.97,11.59c-4.3,9.13-9.21,16.45-14.71,21.96-5.51,5.5-14.31,8.26-26.4,8.26-4.3,0-8.93-.4-13.9-1.21-4.97-.81-9.21-1.61-12.69-2.42v43.93c4.57,2.42,9.67,4.09,15.31,5.04,5.64.94,11.42,1.41,17.33,1.41,13.7,0,25.86-2.62,36.47-7.86,10.61-5.24,19.95-12.83,28.01-22.77,8.06-9.94,14.91-21.9,20.55-35.87l95.51-241.4h-57.23l-56.45,151.22Z"/>
    <polygon class="cls-1" points="692.84 85.84 627.15 85.84 544.13 172.75 544.13 0 491.34 0 491.34 305.07 544.13 305.07 544.13 238.17 572.54 207.69 634 305.07 694.45 305.07 611.84 174.1 692.84 85.84"/>
    <path class="cls-1" d="M865.32,90.88c-13.7-6.58-29.56-9.87-47.55-9.87-14.78,0-28.48,2.42-41.11,7.25-12.63,4.84-23.58,11.49-32.84,19.95-9.27,8.46-16.06,18.47-20.35,30.02l43.12,20.96c4.03-9.94,10.41-17.93,19.14-23.98,8.73-6.04,18.74-9.07,30.02-9.07,12.09,0,21.83,3.16,29.22,9.47,7.39,6.32,11.08,14.17,11.08,23.58v7.1l-65.29,10.64c-17.2,2.69-31.43,7.25-42.72,13.7s-19.61,14.45-24.99,23.98c-5.38,9.54-8.06,20.35-8.06,32.44s3.09,23.71,9.27,33.25c6.18,9.54,14.91,16.86,26.19,21.96,11.28,5.1,24.58,7.66,39.9,7.66,12.09,0,23.1-1.68,33.05-5.04,9.94-3.36,18.8-8.19,26.6-14.51,3.13-2.54,6.08-5.33,8.87-8.37v23.08h49.97v-145.89c0-15.58-3.83-29.22-11.49-40.9-7.66-11.69-18.34-20.82-32.04-27.4ZM849,243.01c-4.7,8.33-11.28,14.85-19.75,19.54-8.46,4.7-18.2,7.05-29.22,7.05-8.6,0-15.79-2.22-21.56-6.65-5.78-4.43-8.66-10.41-8.66-17.93s2.55-14.11,7.66-18.94c5.1-4.84,12.9-8.19,23.37-10.08l55.21-9.38v8.98c0,9.94-2.35,19.08-7.05,27.4Z"/>
    <path class="cls-1" d="M1141.37,120.7c-6.99-12.49-16.72-22.23-29.22-29.22-12.49-6.98-26.8-10.48-42.92-10.48s-29.22,3.43-40.9,10.28c-7.24,4.25-13.22,9.71-17.93,16.38V0h-52.79v305.07h52.79v-128.56c0-9.67,1.88-18,5.64-24.99,3.76-6.98,9-12.42,15.72-16.32,6.71-3.89,14.37-5.84,22.97-5.84s16.59,1.95,23.17,5.84c6.58,3.9,11.75,9.34,15.51,16.32,3.76,6.99,5.64,15.31,5.64,24.99v128.56h52.79v-141.05c0-16.38-3.5-30.83-10.48-43.32Z"/>
  </g>
  <path class="cls-1" d="M212.86,306.97l-.2-91.68-1.02-48.57c-.16-7.37-1.55-14.76-4.27-22.59-1.59-4.62-3.67-9.42-6.33-14.69-7.07-13.96-16.86-25.61-29.09-34.65l-.32-.24c-23.99-17.56-55.7-23.52-87.02-16.34-12.95,2.96-24.68,8.4-34.86,16.16-14.3,10.89-24.45,25.5-29.38,42.27-5.11,17.38-4.13,35.85,2.82,53.4l4.54,11.46c-13.89,10.69-23.61,24.88-26.17,38.33-1.44,7.53-1.88,14.71-1.34,21.93,1.42,19.1,13.43,34.9,31.34,41.23,6.61,2.34,13.44,3.67,20.29,3.96h.34c.85.04,1.71.06,2.58.06s1.74-.02,2.62-.05h.29c2.46-.12,4.98-.36,7.48-.73,24.44-3.67,40.93-23.8,39.19-47.85v-.1c-1.41-13.09-6.29-23.35-11.47-34.21-.07-.16-.15-.33-.23-.49h.09c25.38,0,49.1,12.73,62.69,33.93,9.08,14.16,10.51,44.84,10.57,46.44l-.09,3,46.95.02ZM166,183.11v23.22c-20.82-16.7-45.86-25.49-71.77-25.49-8.09,0-16.27.86-24.43,2.6-4.43-7.9-6.53-15.86-6.41-24.25.2-13.28,6.4-25.42,17.02-33.3,3.58-2.66,7.58-4.77,11.87-6.26,20.54-7.11,42.34-1.66,56.89,14.24,5.86,6.4,10.24,14.07,13.38,23.43,2.29,8.38,3.45,17.06,3.45,25.81ZM59.3,260.43c-.74,3.61-3.71,5.26-6.03,5.58-1.39.18-2.84-.18-4.12-1.05l-.17-.12c-1.8-1.28-3.14-3.27-3.75-5.59-1.49-5.62-.75-13.65,5.17-20.6.02.02.03.04.04.06.62,1.03,1.25,2.07,1.88,3.13,1.62,2.74,3.47,5.99,4.92,9.39.87,2.05,1.51,3.94,1.96,5.78.29,1.2.32,2.35.1,3.42Z"/>
</svg>